<svg width="1024" height="1024" xmlns="http://www.w3.org/2000/svg">

 <g>
  <title>Layer 1</title>
  <path id="svg_1" d="m335.702,48.724c1.433,-0.3223 8.892,-0.41 10.468,-0.4156c21.617,-0.0762 43.739,5.547 62.712,16.0739c50.101,27.798 72.695,87.8657 90.369,139.0427c6.179,17.892 12.036,35.959 17.336,54.008c4.784,-16.759 10.361,-34.406 15.7,-50.968c16.085,-49.899 35.996,-108.1012 83.007,-137.1532c27.548,-17.0363 61.058,-23.0478 92.693,-15.7594c61.666,14.2069 103.482,71.5796 103.189,134.0006c-0.247,52.668 -18.363,102.896 -31.237,153.38l-39.848,161.455c20.047,8.056 37.963,22.33 52.75,37.551c43.537,44.811 58.751,107.629 56.71,168.775c-2.013,60.32 -21.852,121.249 -58.402,169.75c-5.512,7.315 -12.713,16.528 -19.173,22.791c-2.58,3.539 -9.039,9.683 -12.336,12.948c-23.954,23.721 -53.056,43.851 -83.365,58.569c-90.494,43.948 -206.705,46.898 -301.091,13.855c-77.095,-26.993 -142.342,-81.982 -177.36,-156.293c-15.23,-31.935 -24.06,-66.082 -27.27,-101.293c-1.405,-11.396 -0.752,-23.834 -1.243,-35.017c-0.119,-2.701 -8.061,-18.757 -9.658,-23.035c-10.713,-28.689 -12.946,-60.008 -2.52,-89.138c11.022,-30.792 31.086,-50.284 60.158,-63.88c1.174,-11.043 3.052,-19.866 6.834,-30.303c9.172,-25.306 32.608,-49.77 57.119,-60.791c-1.76,-4.289 -5.061,-16.642 -6.573,-21.772l-13.245,-44.92l-20.499,-68.288c-20.663,-68.236 -42.716,-142.613 11.172,-202.8609c20.987,-23.4649 52.233,-38.3568 83.603,-40.3121z" fill="#fefefe"/>
  <path id="svg_2" d="m339.761,82.2034c14.945,-1.2573 32.253,2.2902 45.851,8.4184c15.501,6.9857 28.547,18.3282 38.596,32.0022c22.223,30.238 34.857,67.903 46.77,103.099c11.882,35.103 22.085,70.907 31.536,106.678l8.201,32.326c1.332,5.37 2.74,12.744 4.739,17.724c2.644,-7.541 5.407,-18.093 7.602,-25.882l12.115,-43.161c8.63,-30.606 18.176,-60.884 27.767,-91.217c9.53,-30.142 19.567,-60.995 36.271,-88.072c8.45,-13.697 19.196,-25.849 32.657,-34.781c19.322,-12.821 42.929,-18.015 65.739,-13.3766c25.225,5.1295 47.712,20.6436 61.86,42.0426c11.471,17.347 18.323,40.082 17.888,60.916c-0.993,47.494 -17.797,94.759 -29.487,140.342l-22.454,90.393c-8.715,35.186 -17.236,69.031 -24.563,104.535c7.416,2.348 15.046,4.828 22.233,7.702c34.181,13.666 62.467,45.127 76.479,79.059c25.131,60.852 19.685,133.109 -4.808,193.173c-35.922,87.664 -121.023,147.357 -212.598,164.207c-89.139,16.401 -186.533,3.953 -262.773,-47.258c-70.911,-47.631 -114.466,-126.528 -116.081,-211.947c-0.147,-7.619 0.81,-15.388 -0.397,-22.917c-1.039,-6.476 -5.251,-12.003 -7.874,-17.899c-13.367,-29.126 -16.272,-64.519 2.763,-91.931c13.394,-19.289 31.093,-28.946 53.755,-33.101c-6.447,-49.947 23.09,-84.088 70.635,-94.887l-36.907,-126.539l-14.889,-49.339c-15.306,-50.696 -33.848,-112.263 4.655,-157.579c17.061,-20.0793 38.627,-30.4996 64.719,-32.7306z"/>
  <path id="svg_3" d="m344.256,140.139c4.693,-0.516 9.449,-0.139 14.011,1.063c8.002,2.109 14.379,6.377 19.714,12.644c35.304,41.463 70.433,187.054 84.793,244.614c3.669,14.707 9.396,48.374 16.465,59.794c3.738,6.038 11.749,8.735 18.354,10.176c14.706,3.209 39.416,4.071 50.958,-7.671c8.931,-9.084 13.421,-38.929 17.141,-52.177l37.134,-127.757c11.637,-38.872 21.321,-75.672 40.879,-112.344c16.437,-30.819 49.311,-35.879 69.895,-5.413c9.323,13.799 7.455,37.125 4.112,53.353c-14.777,71.736 -36.206,142.289 -51.866,213.919c-6.042,27.387 -12.644,55.151 -19.152,82.447c-38.666,-5.364 -106.184,-18.061 -142.287,4.82c-14.109,9.953 -22.314,26.561 -25.166,43.228c-4.42,25.821 3.239,54.477 18.66,75.497c26.566,36.211 72.62,50.615 114.695,59.248c14.45,2.965 31.462,12.943 45.329,2.761c5.338,-3.941 8.593,-10.711 9.331,-17.211c3.205,-26.952 -29.015,-31.959 -48.406,-36.327c-28.693,-6.382 -60.168,-15.107 -78.93,-39.525c-9.462,-12.314 -11.31,-24.093 -9.227,-39.191c0.465,-1.268 0.974,-2.506 1.619,-3.695c1.715,-3.164 3.921,-4.123 7.27,-5.137c27.166,-8.217 105.75,5.399 133.648,12.819c12.497,3.323 25.359,7.476 36.733,13.707c24.216,13.269 38.137,35.645 45.649,61.68c14.815,51.346 6.243,111.419 -19.567,157.897c-29.434,53.005 -81.286,89.44 -139.014,105.808c-74.421,21.102 -162.923,15.199 -231.039,-22.928c-48.04,-26.89 -87.877,-73.045 -102.957,-126.538c21.464,9.599 40.761,13.725 63.887,5.814c24.394,-8.345 38.881,-25.688 49.816,-48.171c8.462,1.357 16.95,2.041 25.508,1.288c20.794,-1.83 39.539,-12.567 52.806,-28.534c14.177,-17.062 18.875,-38.808 16.879,-60.586c-3.922,-42.792 -43.567,-116.982 -70.966,-149.561c-5.495,-6.534 -11.688,-12.038 -18.23,-17.474c-3.923,-11.052 -7.898,-29.081 -11.095,-40.754c-6.33,-23.108 -12.306,-46.256 -19.062,-69.289c-7.527,-25.658 -15.429,-51.235 -23.172,-76.82c-7.03,-23.229 -14.105,-46.575 -18.3,-70.493c-2.941,-16.764 -4.937,-34.092 5.613,-48.699c7.085,-9.811 15.824,-14.359 27.537,-16.282z" fill="#FEFEFE"/>
  <path id="svg_4" d="m601.4,743.151c23.41,-2.908 40.379,11.268 44.899,33.904c6.062,30.359 1.953,71.753 -34.35,79.377c-9.229,0.583 -18.074,0.653 -26.097,-5.017c-26.47,-18.709 -27.971,-65.79 -11.535,-91.27c6.074,-9.416 16.257,-15.065 27.083,-16.994z"/>
  <path id="svg_5" d="m411.953,745.164c62.664,-7.026 63.364,106.764 12.492,113.625c-26.654,1.731 -42.947,-14.968 -47.106,-40.661c-4.623,-28.558 -0.226,-67.518 34.614,-72.964z"/>
  <path id="svg_6" d="m330.041,499.599c24.154,-2.507 35.199,17.672 46.329,35.418c11.554,19.259 23.175,39.314 31.502,60.23c10.26,25.772 27.271,69.592 -16.076,72.377c-2.809,-0.026 -5.285,-0.881 -7.713,-2.275c-23.61,-13.551 -51.593,-74.782 -65.862,-99.939c-5.1,-8.991 -13.875,-17.92 -16.316,-28.129c-1.78,-7.444 0.779,-14.943 4.766,-21.197c5.658,-8.874 13.132,-14.219 23.37,-16.485z" fill="#FEFEFE"/>
  <path id="svg_7" d="m257.513,595.073c7.709,-0.285 15.258,0.904 19.578,7.845c13.712,22.03 25.809,45.145 39.799,67.047c6.07,9.504 16.631,21.991 10.393,33.415c-3.881,7.106 -11.415,11.944 -18.964,14.512c-31.596,6.681 -60.314,-53.924 -68.79,-78.322c-6.443,-18.546 -4.073,-39.009 17.984,-44.497z" fill="#FEFEFE"/>
 </g>
</svg>